<?xml version="1.0" encoding="utf-8"?>
<!-- Generator: Adobe Illustrator 22.0.0, SVG Export Plug-In . SVG Version: 6.00 Build 0)  -->
<svg version="1.1" id="Capa_1" xmlns="http://www.w3.org/2000/svg" xmlns:xlink="http://www.w3.org/1999/xlink" x="0px" y="0px"
	 viewBox="0 0 400 400" style="enable-background:new 0 0 400 400;" xml:space="preserve">
<style type="text/css">
	.st0{filter:url(#filter3497);}
	.st1{fill:#1A1A1A;}
	.st2{fill:none;stroke:#000000;}
	.st3{fill:none;stroke:#000000;stroke-width:1.0228;}
	.st4{stroke:#333333;stroke-width:0.8182;stroke-linecap:round;stroke-linejoin:round;}
	.st5{fill:url(#path16273_1_);}
	.st6{fill:#1A1A1A;stroke:#333333;stroke-width:0.8182;stroke-linecap:round;stroke-linejoin:round;}
	.st7{fill:#FFFFFF;stroke:#000000;stroke-width:1.0228;stroke-linejoin:round;}
	.st8{fill:none;stroke:#999999;stroke-width:1.0228;}
	.st9{opacity:0.3;fill:none;stroke:#000000;stroke-width:1.0228;enable-background:new    ;}
	
		.st10{opacity:0.89;fill:#999999;stroke:#000000;stroke-width:0.9745;stroke-linecap:round;stroke-linejoin:round;enable-background:new    ;}
	
		.st11{opacity:0.9972;fill:#666666;stroke:#000000;stroke-width:0.2046;stroke-linecap:round;stroke-linejoin:round;enable-background:new    ;}
	.st12{fill:#808080;stroke:#000000;stroke-width:0.2046;stroke-linejoin:round;}
	
		.st13{opacity:0.69;fill:none;stroke:#000000;stroke-width:0.2046;stroke-linecap:round;stroke-linejoin:round;enable-background:new    ;}
	.st14{fill:#4D4D4D;stroke:#000000;stroke-width:0.2046;stroke-linejoin:round;}
	.st15{fill:#808080;}
	.st16{fill:#FF00FF;stroke:#000000;stroke-width:1.0228;}
	.st17{opacity:0.9972;fill:#808080;enable-background:new    ;}
	.st18{opacity:0.9972;fill:#4D4D4D;enable-background:new    ;}
	.st19{fill:#4D4D4D;}
	.st20{fill:#FFFFFF;}
	.st21{fill:#F7F7F7;}
	.st22{opacity:0.67;filter:url(#filter16257);enable-background:new    ;}
	.st23{fill:url(#path25800_1_);}
</style>
<filter  height="1.2229" id="filter3497" width="1.172791" x="-0.086395" y="-0.11145">
	<feGaussianBlur  id="feGaussianBlur3499" stdDeviation="11.145"></feGaussianBlur>
</filter>
<filter  id="filter16257">
	<feGaussianBlur  id="feGaussianBlur16259" stdDeviation="0.414313"></feGaussianBlur>
</filter>
<title>laptop</title>
<title>Layer 1</title>
<g id="g2491">
	<g id="path2486" class="st0">
		<polygon class="st1" points="183.5,320.7 56.8,294.3 6.1,152 196.2,99.4 253.7,236.8 		"/>
		<polygon class="st2" points="183.5,320.7 56.8,294.3 6.1,152 196.2,99.4 253.7,236.8 		"/>
	</g>
	<path id="path5140" class="st3" d="M100.9,274.3l8.9,4.9l17.3-11.5l-8.7-4.6L100.9,274.3z"/>
	<path id="path5128" class="st3" d="M153,240.6l8.6,4.2l15.5-10.1l-8.6-4.1L153,240.6z"/>
	<path id="path5132" class="st3" d="M168.6,230.6l8.5,4l15-10l-8.4-3.8L168.6,230.6z"/>
	<path id="path5130" class="st3" d="M183.5,220.8l8.6,3.9l12.8-8.5l-8.4-3.7L183.5,220.8z"/>
	<path id="path5134" class="st3" d="M196.5,212.6l8.5,3.7l11.6-7.8l-8.2-3.5L196.5,212.6z"/>
	<path id="path5136" class="st3" d="M208.5,205l8,3.4l11.6-7.4l-7.7-3.8L208.5,205z"/>
	<path id="path2172" class="st4" d="M65.3,279.6l165,96.4l159.8-155.5l-143-53.4L65.3,279.6z"/>
	
		<linearGradient id="path16273_1_" gradientUnits="userSpaceOnUse" x1="-104.5256" y1="595.8872" x2="-103.8127" y2="595.1551" gradientTransform="matrix(254.3031 0 0 -172.8801 26695.5371 103191.9063)">
		<stop  offset="0" style="stop-color:#FFEFEF;stop-opacity:0.5816"/>
		<stop  offset="1" style="stop-color:#FFEFEF;stop-opacity:0.1429"/>
	</linearGradient>
	<path id="path16273" class="st5" d="M274.7,177.5c-100.4,58.9-38.1,45.4-176,121.1l87.8,51.8c83.8-25.6,176.9-74.4,165.6-144.2
		l-59.5-22.1L274.7,177.5z"/>
	<path id="path2174" class="st4" d="M65.2,279.6l0.1,13.2l164.3,99.4c3.3-1.8,4.7-12.1,1.1-16.2L65.2,279.6z"/>
	<path id="path2176" class="st4" d="M390.1,220.6c1,3,2,9.6-0.8,12.3L229.8,391.9c4.2-4.8,2.9-10.4,0.8-16.2L390.1,220.6z"/>
	<path id="path2178" class="st6" d="M32,78.1c0,0,28.5,202.7,30.6,200.6c2.1-2.2,183.9-113,183.9-113L247,9.8
		C247,9.8,32,78.1,32,78.1z"/>
	<path id="path2182" class="st6" d="M240.6,8.4c5-1.4,4.9,0.5,6.3,1.4L32,77.6c-1.9-1.7-2.7-1-7.1-0.9
		C24.9,76.7,240.6,8.4,240.6,8.4z"/>
	<path id="path3155" class="st7" d="M38.1,90.5L244,22.9L242.6,156L63.9,263.9L38.1,90.5L38.1,90.5z"/>
	<path id="path4130" class="st8" d="M267.3,174.9l-178.2,118l-9-5l179.5-116L267.3,174.9z"/>
	<path id="path5126" class="st9" d="M110.9,278.3l19.5-12.8L110.9,278.3z"/>
	<path id="rect2179" class="st10" d="M257.6,283.2l38.8-32.4c2.2-1.9,6.9-2.1,10.5-0.5l19.5,8.7c3.9,1.7,5.4,4.6,3.3,6.7l-35.9,34.7
		c-2.5,2.4-7.8,2.8-12,0.8l-22.1-10.5C255.9,288.7,254.9,285.4,257.6,283.2L257.6,283.2"/>
	<path id="path5322" class="st11" d="M153.3,240.6c2.5-1.9,8.9,1.8,8.6,4.1L153.3,240.6z"/>
	<path id="path6299" class="st12" d="M109.5,279.3l17.5-11.7c-1.5-3-4.2-5.2-8.6-4.8L101,274.3C104.1,272.2,110,276.8,109.5,279.3z"
		/>
	<path id="path4349" class="st13" d="M101,274.3c3.5-2.2,9.4,3.3,8.5,5.1L101,274.3z"/>
	<path id="path8239" class="st14" d="M161.8,244.8l14.8-9.8c-0.7-2.8-3-4.6-8.2-4.2l-15.2,9.8C156,238.5,162.6,242.8,161.8,244.8z"
		/>
	<path id="path8241" class="st14" d="M176.5,235l15-9.7c-1-2.9-3.5-4.8-8.5-3.9l-15.1,9.8C170.9,229.8,176.1,231.5,176.5,235z"/>
	<path id="path8243" class="st14" d="M191.4,225.2l13.3-8.8c-1.7-2.7-3.9-3.8-8.2-3.7l-13.6,8.6
		C186.1,220.6,190.6,221.7,191.4,225.2z"/>
	<path id="path8245" class="st14" d="M204.7,216.4l11.6-7.7c-2-2.5-4.3-3.6-8.1-3.5l-11.9,7.6C199.7,212.4,202.8,213.4,204.7,216.4z
		"/>
	<path id="path8247" class="st14" d="M216.3,208.7L228,201c-1.5-3.5-4.4-4.1-7.7-3.8l-12.3,8.1C211,204.9,213.7,205.4,216.3,208.7z"
		/>
	<path id="rect2202" class="st15" d="M218.7,287.7l50.1-40.3c0.6-0.5,1.8-0.5,2.8,0l7.7,3.8c1,0.5,1.3,1.2,0.7,1.7l-49.3,41.5
		c-0.7,0.6-2.2,0.6-3.2,0.1l-8.2-4.6C218.1,289.2,217.9,288.3,218.7,287.7L218.7,287.7"/>
	<path id="path2449" class="st16" d="M216,289.3l11.4,6.5l-8.4,7l-11.6-6.5L216,289.3z"/>
	<path id="path2451" class="st16" d="M206.4,297.1l11.7,6.5l-8.7,7.3l-11.4-7L206.4,297.1z"/>
	<path id="path2453" class="st16" d="M197.1,304.6l11.4,7l-8.9,7.4l-11.9-6.8L197.1,304.6z"/>
	<path id="path2455" class="st16" d="M186.7,313l12,6.8l-11,9.3l-12.2-7L186.7,313z"/>
	<path id="path2457" class="st16" d="M270.7,245.4l10.5,5.2l8-6.6l-10.6-4.9L270.7,245.4z"/>
	<path id="path2459" class="st16" d="M279.6,238.4l7.6-6.1l10.8,4.6l-7.9,6.4L279.6,238.4z"/>
	<path id="path2461" class="st16" d="M288.2,231.5l10.7,4.6l7.5-6.2l-10.3-4.8L288.2,231.5z"/>
	<path id="path2463" class="st16" d="M286.9,231l-9-4.5l8.1-6.3l8.9,4.3L286.9,231z"/>
	<path id="path2465" class="st16" d="M174.4,321.4l-10.9-6.2l22.2-17l10.3,5.7L174.4,321.4z"/>
	<path id="path2467" class="st16" d="M287.1,219.4l8.8,4.3l21-17l-9.1-3.6L287.1,219.4z"/>
	<path id="path2469" class="st16" d="M295.1,211.8l11.5-9.1l-21.6-8.4L270.6,205l9.8,3.9l2.7-2.1L295.1,211.8z"/>
	<path id="path2471" class="st16" d="M283.6,193.8l-19.7,14.6l-9.3-4l20.2-14.1L283.6,193.8z"/>
	<path id="path2473" class="st16" d="M162.4,314.6l19.1-14.7l-12.1-6.4l-19.1,14.2L162.4,314.6z"/>
	<path id="path2475" class="st16" d="M149,307.2l15.1-11.3l-11-5.9l-15.2,10.9L149,307.2z"/>
	<path id="path2477" class="st16" d="M136.7,300.3l11.1-8l-10.5-5.8l-11,7.9L136.7,300.3z"/>
	<path id="path2497" class="st16" d="M138.4,285.8l9-6.4l10.4,5.5l-9.1,6.7L138.4,285.8z"/>
	<path id="path2499" class="st16" d="M197.1,303.1l8.2-6.6l-10.7-5.4l-8,6.4L197.1,303.1z"/>
	<path id="path2501" class="st16" d="M182.4,299.2l8.4-6.6l-11.9-6.3l-8.5,6.4L182.4,299.2z"/>
	<path id="path2503" class="st16" d="M165.3,295.2l8.5-6.4l-11.1-5.9l-8.4,6.3L165.3,295.2z"/>
	<path id="path2505" class="st16" d="M148.6,278.7l8.8-6.1l10.2,5.4l-8.6,6.2L148.6,278.7z"/>
	<path id="path2507" class="st16" d="M174.8,288l8.5-6.5l-10.7-5.5l-8.9,6.3L174.8,288z"/>
	<path id="path2509" class="st16" d="M158.5,271.9l8.6-6.1l10.2,5.2l-8.5,6.2L158.5,271.9z"/>
	<path id="path2511" class="st16" d="M191.7,291.9l8.6-6.7l-11.8-6.1l-8.5,6.4L191.7,291.9z"/>
	<path id="path2513" class="st16" d="M206.4,295.7l8.6-7l-10.5-5.3l-8.8,6.7L206.4,295.7z"/>
	<path id="path2515" class="st16" d="M216,288l8.9-7.2l-10.4-5.2l-9,7L216,288z"/>
	<path id="path2517" class="st16" d="M226,280.1l7.6-6l-10.4-5.1l-7.6,5.9L226,280.1z"/>
	<path id="path2519" class="st16" d="M234.6,273.3l8.5-6.8l-10.3-5l-8.6,6.7L234.6,273.3z"/>
	<path id="path2521" class="st16" d="M243.9,265.7l8.4-6.7l-10.1-4.8l-8.4,6.5L243.9,265.7z"/>
	<path id="path2523" class="st16" d="M253.2,258.3l7.8-6.2l-10.1-4.6l-7.7,6L253.2,258.3z"/>
	<path id="path2525" class="st16" d="M261.9,251.4l6.8-5.8l-9.7-4.5l-7.3,5.7L261.9,251.4z"/>
	<path id="path2527" class="st16" d="M269.7,244.8l7.8-6.2l-9.6-4.3l-7.7,6L269.7,244.8z"/>
	<path id="path2529" class="st16" d="M278.4,237.8l7.5-6l-9.1-4.4l-7.8,6L278.4,237.8z"/>
	<path id="path2531" class="st16" d="M168.2,265l9.3-6.5l9.7,5.1l-8.9,6.8L168.2,265z"/>
	<path id="path2533" class="st16" d="M178.6,257.8l8.6-6.1l9.5,5.2l-8.4,5.9L178.6,257.8z"/>
	<path id="path2535" class="st16" d="M188.1,251l9-6.3l9.5,5.1l-9,6.4L188.1,251z"/>
	<path id="path2537" class="st16" d="M198.1,243.9l7.8-5.4l9.8,4.5l-8.1,6.1L198.1,243.9z"/>
	<path id="path2539" class="st16" d="M206.9,237.7l8.5-5.9l9.7,4.4l-8.4,6.1L206.9,237.7z"/>
	<path id="path2541" class="st16" d="M216.5,231.1l8.5-5.9l9.7,4.2l-8.4,6.1L216.5,231.1z"/>
	<path id="path2543" class="st16" d="M226,224.3l8.6-6.1l9.5,4.2l-8.5,6.2L226,224.3z"/>
	<path id="path2545" class="st16" d="M235.8,217.5l7.7-5.5l9.6,4.1l-7.7,5.6L235.8,217.5z"/>
	<path id="path2547" class="st16" d="M244.5,211.3l9-6.2l9.4,4l-8.7,6.3L244.5,211.3z"/>
	<path id="path2242" class="st16" d="M189.4,278.4l8.6-6.4l11.8,6l-8.6,6.5L189.4,278.4z"/>
	<path id="path2244" class="st16" d="M199,271.1l8.2-6l11.7,5.8l-8.2,6.3L199,271.1z"/>
	<path id="path2246" class="st16" d="M208.2,264.4l8.3-6.2l11.5,5.7l-8.2,6.4L208.2,264.4z"/>
	<path id="path2248" class="st16" d="M217.5,257.4l11.5,5.6l7.5-5.8l-11.4-5.5C225.1,251.7,217.5,257.4,217.5,257.4z"/>
	<path id="path2250" class="st16" d="M226,250.9l11.5,5.6l7.5-5.8l-11.4-5.5C233.6,245.2,226,250.9,226,250.9z"/>
	<path id="path2252" class="st16" d="M234.6,244.4L246,250l8.1-6.4l-11.1-5.2L234.6,244.4z"/>
	<path id="path2254" class="st16" d="M244.1,237.6l11,5.3l7.9-6.2l-11.3-4.9L244.1,237.6z"/>
	<path id="path2256" class="st16" d="M252.9,231l11.1,4.9l7.4-5.7l-11.1-4.8L252.9,231z"/>
	<path id="path2258" class="st16" d="M261.3,224.7l11,4.8l7.6-5.9l-11-4.6L261.3,224.7z"/>
	<path id="path2260" class="st16" d="M269.9,218.2l10.9,4.6l6.4-4.9l-10.8-4.6L269.9,218.2z"/>
	<path id="path2262" class="st16" d="M277.5,212.5l10.7,4.7l5.9-4.6l-10.8-4.5L277.5,212.5z"/>
	<path id="path2264" class="st16" d="M184.2,280.7l8.5-6.5l-10.7-5.5l-8.9,6.3L184.2,280.7z"/>
	<path id="path2266" class="st16" d="M193.9,273.2l8.8-6.4l-11-5.6l-8.9,6.3L193.9,273.2z"/>
	<path id="path2268" class="st16" d="M203.8,266l8.8-6.4l-10.7-5.2l-8.7,6.1L203.8,266z"/>
	<path id="path2270" class="st16" d="M213.6,258.8l9.2-6.7l-10.4-5.1l-9.4,6.7L213.6,258.8z"/>
	<path id="path2272" class="st16" d="M223.6,251.3l7.8-5.8l-10.3-5l-7.7,5.6L223.6,251.3z"/>
	<path id="path2274" class="st16" d="M232.3,244.7l7.6-5.5l-10-5l-7.7,5.6L232.3,244.7z"/>
	<path id="path2276" class="st16" d="M241,238.4l7.4-5.7l-9.7-4.9l-7.7,5.6L241,238.4z"/>
	<path id="path2278" class="st16" d="M249.7,232.1l7.7-5.8l-9.7-4.6l-7.7,5.5L249.7,232.1z"/>
	<path id="path2280" class="st16" d="M258.2,225.4l7.2-5.2l-9.7-4.4l-7.1,5L258.2,225.4z"/>
	<path id="path2282" class="st16" d="M266.5,219.4l6.3-4.8l-9.5-4.3l-6.6,4.8L266.5,219.4z"/>
	<path id="path2284" class="st16" d="M273.8,213.9l5.5-4.2l-9.6-3.8l-5.2,3.8L273.8,213.9z"/>
	<path id="rect3291" class="st17" d="M299.9,235.3l5.5-4.6c0.5-0.5,0.4-1.1-0.3-1.4l-7.6-3.5c-0.8-0.4-1.9-0.3-2.4,0.2l-5.8,4.7
		c-0.6,0.5-0.4,1.1,0.4,1.5l7.9,3.4C298.3,235.9,299.3,235.7,299.9,235.3L299.9,235.3"/>
	<path id="rect3293" class="st17" d="M232.4,273.5l-7.9-3.9c-0.7-0.3-1.6-0.3-2.1,0.1l-5.8,4.5c-0.5,0.4-0.4,1,0.3,1.3l7.9,3.9
		c0.7,0.3,1.7,0.3,2.2-0.1l5.8-4.5C233.2,274.4,233.1,273.8,232.4,273.5L232.4,273.5"/>
	<path id="rect3299" class="st17" d="M244.4,212.4l7.6,3.3c0.5,0.2,0.6,0.7,0.2,1l-6.2,4.4c-0.4,0.3-1.2,0.4-1.8,0.1l-7.6-3.4
		c-0.5-0.2-0.6-0.7-0.2-1l6.1-4.4C243.1,212.3,243.9,212.2,244.4,212.4L244.4,212.4"/>
	<path id="rect3301" class="st17" d="M208.4,265.7l9.3,4.6c0.7,0.3,0.9,0.9,0.4,1.2l-6.5,5c-0.5,0.4-1.4,0.4-2.1,0l-9.3-4.8
		c-0.7-0.3-0.8-0.9-0.3-1.2l6.5-4.8C206.8,265.4,207.7,265.4,208.4,265.7L208.4,265.7"/>
	<path id="rect3305" class="st17" d="M187.8,252l8.2,4.5c0.3,0.2,0.4,0.5,0.1,0.7l-7.3,5.1c-0.3,0.2-0.8,0.2-1.2,0.1l-8.4-4.3
		c-0.4-0.2-0.4-0.5-0.1-0.7l7.5-5.3C186.9,251.9,187.4,251.8,187.8,252L187.8,252"/>
	<path id="rect3309" class="st17" d="M197.9,320.5l-9.3,7.8c-0.5,0.4-1.3,0.5-1.8,0.2l-10.3-5.9c-0.5-0.3-0.5-0.8-0.1-1.2l9.5-7.7
		c0.5-0.4,1.2-0.5,1.8-0.2l10.2,5.8C198.3,319.6,198.3,320.1,197.9,320.5L197.9,320.5"/>
	<path id="rect3311" class="st17" d="M224,280.4l-8.6-4.3c-0.5-0.2-1.2-0.2-1.7,0.1l-7.5,5.7c-0.4,0.3-0.4,0.8,0.1,1.1l8.7,4.4
		c0.5,0.3,1.3,0.2,1.7-0.2l7.4-5.9C224.6,281.1,224.5,280.6,224,280.4L224,280.4"/>
	<path id="rect3313" class="st17" d="M197.9,245.1l7.9,4.3c0.4,0.2,0.4,0.6,0,0.9l-7.6,5.3c-0.4,0.3-1.1,0.3-1.5,0.1l-7.9-4.3
		c-0.4-0.2-0.4-0.6,0-0.9l7.6-5.3C196.8,244.9,197.5,244.9,197.9,245.1L197.9,245.1"/>
	<path id="rect3317" class="st17" d="M166,313.4l17.5-13.4c1.2-0.9,2.7-1.4,3.3-1.1l8.1,4.5c0.6,0.3,0.1,1.4-1.1,2.3l-17,13.8
		c-1.3,1.1-2.9,1.7-3.6,1.3l-8.6-4.9C164,315.6,164.6,314.4,166,313.4L166,313.4"/>
	<path id="rect3319" class="st17" d="M189.5,291.9l-9.2-4.9c-0.7-0.4-1.7-0.4-2.2,0l-6.6,4.9c-0.5,0.4-0.4,1,0.4,1.5l9.3,5.1
		c0.8,0.4,1.8,0.4,2.3,0l6.5-5.1C190.4,292.9,190.3,292.3,189.5,291.9L189.5,291.9"/>
	<path id="rect3321" class="st17" d="M182.1,280.9l-8.5-4.4c-0.6-0.3-1.5-0.3-2,0.1l-7.1,5c-0.5,0.4-0.4,0.9,0.2,1.3l8.8,4.6
		c0.6,0.3,1.5,0.3,2-0.1l6.7-5.2C182.9,281.8,182.7,281.2,182.1,280.9L182.1,280.9"/>
	<path id="rect3323" class="st17" d="M158.1,273l8.7,4.6c0.4,0.2,0.5,0.6,0.1,0.9l-7.3,5.3c-0.4,0.3-1,0.3-1.4,0.1l-8.8-4.7
		c-0.4-0.2-0.5-0.6-0.1-0.9l7.5-5.2C157.1,272.8,157.7,272.8,158.1,273L158.1,273"/>
	<path id="rect3325" class="st17" d="M217.3,304.2l-7.1,6c-0.4,0.4-1.3,0.4-1.9,0l-9.3-5.7c-0.5-0.3-0.6-0.9-0.2-1.2l6.9-5.5
		c0.4-0.3,1.2-0.4,1.8,0l9.5,5.3C217.6,303.3,217.7,303.8,217.3,304.2L217.3,304.2"/>
	<path id="rect3327" class="st17" d="M247.2,232l-7.2-3.6c-0.7-0.4-1.7-0.3-2.3,0.1l-5.7,4.1c-0.6,0.4-0.5,1.1,0.3,1.4l7.4,3.7
		c0.7,0.4,1.8,0.3,2.3-0.1l5.5-4.2C248,233,247.9,232.4,247.2,232L247.2,232"/>
	<path id="rect3329" class="st17" d="M238.7,238.6l-7.6-3.8c-0.7-0.3-1.6-0.3-2.1,0.1l-5.8,4.2c-0.5,0.4-0.4,0.9,0.3,1.3l7.7,3.7
		c0.7,0.3,1.6,0.3,2.1-0.1l5.8-4.2C239.5,239.5,239.4,238.9,238.7,238.6L238.7,238.6"/>
	<path id="rect3331" class="st17" d="M288.1,232.7l8.9,3.8c0.6,0.2,0.7,0.7,0.3,1l-6.4,5.2c-0.4,0.3-1.1,0.4-1.7,0.1l-8.6-4
		c-0.5-0.2-0.6-0.7-0.2-1l6.2-5C286.8,232.5,287.6,232.4,288.1,232.7L288.1,232.7"/>
	<path id="rect3333" class="st17" d="M211.7,259.2l-8.9-4.3c-0.5-0.2-1.2-0.2-1.6,0.1L194,260c-0.4,0.3-0.4,0.7,0.1,1l8.7,4.6
		c0.5,0.3,1.3,0.2,1.7-0.1l7.3-5.3C212.3,259.9,212.2,259.4,211.7,259.2L211.7,259.2"/>
	<path id="rect3335" class="st17" d="M235.6,218.7l7.6,3.4c0.5,0.2,0.6,0.7,0.1,1.1l-6.8,4.9c-0.5,0.4-1.3,0.4-1.9,0.2l-7.7-3.4
		c-0.5-0.2-0.6-0.7-0.1-1.1l6.8-4.8C234.3,218.6,235.1,218.5,235.6,218.7L235.6,218.7"/>
	<path id="rect3337" class="st17" d="M225.9,225.6l7.7,3.3c0.6,0.2,0.6,0.7,0.2,1l-6.7,4.8c-0.5,0.4-1.3,0.4-1.9,0.2l-7.7-3.5
		c-0.5-0.2-0.6-0.7-0.1-1.1l6.7-4.7C224.6,225.5,225.4,225.4,225.9,225.6L225.9,225.6"/>
	<path id="rect3339" class="st17" d="M254.1,205.4l8.2,3.5c0.3,0.1,0.4,0.4,0.1,0.7l-7.6,5.5c-0.3,0.2-0.9,0.3-1.2,0.2l-8.4-3.6
		c-0.4-0.2-0.4-0.5,0-0.7l7.8-5.3C253.3,205.3,253.8,205.3,254.1,205.4L254.1,205.4"/>
	<path id="rect3341" class="st17" d="M198.9,272.3l10.2,5.2c0.5,0.2,0.6,0.6,0.2,0.9l-7.4,5.6c-0.3,0.3-1,0.3-1.4,0l-10.2-5.2
		c-0.5-0.2-0.5-0.6-0.2-0.9l7.4-5.6C197.8,272.1,198.4,272.1,198.9,272.3L198.9,272.3"/>
	<path id="rect3343" class="st17" d="M216.2,232.1l8.2,3.7c0.4,0.2,0.5,0.5,0.1,0.8l-7.1,5.2c-0.4,0.3-1,0.3-1.4,0.1l-8.4-3.9
		c-0.4-0.2-0.4-0.6-0.1-0.8l7.2-5C215.2,232,215.8,231.9,216.2,232.1L216.2,232.1"/>
	<path id="rect3345" class="st17" d="M163.1,295.4l-9.1-4.9c-0.5-0.3-1.5-0.1-2.2,0.4l-12.5,9c-0.8,0.5-0.9,1.2-0.4,1.5l9.1,5.2
		c0.5,0.3,1.6,0.1,2.3-0.5l12.5-9.3C163.5,296.4,163.7,295.7,163.1,295.4L163.1,295.4"/>
	<path id="rect3349" class="st17" d="M148,279.7l9.4,4.9c0.3,0.2,0.3,0.4,0.1,0.6l-8.2,6c-0.3,0.2-0.7,0.2-1,0l-9.3-5.2
		c-0.3-0.2-0.3-0.4,0-0.6l8.1-5.8C147.3,279.6,147.7,279.6,148,279.7L148,279.7"/>
	<path id="rect3351" class="st17" d="M172.5,288.1l-8.7-4.6c-0.6-0.3-1.5-0.3-2,0l-6.7,5c-0.5,0.4-0.4,0.9,0.3,1.3l8.7,4.7
		c0.7,0.4,1.6,0.3,2.1,0l6.7-5.1C173.3,289.1,173.2,288.5,172.5,288.1L172.5,288.1"/>
	<path id="rect3353" class="st17" d="M199,284.5l-9.2-4.7c-0.7-0.4-1.7-0.3-2.2,0l-6.6,4.9c-0.5,0.4-0.4,1,0.3,1.4l9.1,5
		c0.8,0.4,1.8,0.4,2.3,0l6.7-5.2C199.9,285.5,199.7,284.8,199,284.5L199,284.5"/>
	<path id="rect3355" class="st17" d="M180.2,299.3l-9.7-5.1c-0.7-0.4-2.1,0-3.1,0.8l-15.2,11.3c-1.1,0.8-1.5,1.8-0.8,2.2l9.7,5.4
		c0.7,0.4,2.2,0,3.3-0.8l15.2-11.7C180.6,300.6,180.9,299.7,180.2,299.3L180.2,299.3"/>
	<path id="rect3357" class="st17" d="M178.3,258.9l8.3,4.3c0.4,0.2,0.4,0.6,0.1,0.9l-7.6,5.8c-0.4,0.3-1,0.4-1.5,0.1l-8.6-4.5
		c-0.4-0.2-0.4-0.6,0-0.9l7.9-5.6C177.2,258.7,177.9,258.7,178.3,258.9L178.3,258.9"/>
	<path id="rect3359" class="st17" d="M204.3,296l-8.7-4.4c-0.5-0.3-1.3-0.2-1.7,0.1l-6.5,5.2c-0.4,0.3-0.3,0.8,0.2,1.1l8.5,4.6
		c0.5,0.3,1.3,0.3,1.7-0.1l6.7-5.4C205,296.8,204.9,296.3,204.3,296L204.3,296"/>
	<path id="rect3361" class="st17" d="M207.3,312.5l-6.6,5.5c-0.7,0.6-1.9,0.6-2.7,0.1l-8.8-5c-0.9-0.5-1.1-1.4-0.4-2l7-5.6
		c0.7-0.6,1.9-0.6,2.8,0l8.3,5.1C207.8,311.2,208,312,207.3,312.5L207.3,312.5"/>
	<path id="rect3363" class="st17" d="M226.4,296.6l-6.4,5.4c-0.6,0.5-1.6,0.5-2.4,0.1l-8.8-5c-0.8-0.4-0.9-1.2-0.4-1.6l6.5-5.3
		c0.6-0.5,1.6-0.5,2.4-0.1l8.6,4.9C226.8,295.4,227,296.1,226.4,296.6L226.4,296.6"/>
	<path id="rect3365" class="st17" d="M214.1,288.3l-8.6-4.4c-0.5-0.3-1.3-0.2-1.7,0.1l-7.2,5.5c-0.5,0.3-0.4,0.8,0.1,1.1l8.8,4.6
		c0.5,0.3,1.3,0.2,1.8-0.1l7-5.7C214.7,289,214.6,288.5,214.1,288.3L214.1,288.3"/>
	<path id="rect3367" class="st17" d="M167.9,266.3l8.4,4.4c0.5,0.2,0.6,0.7,0.2,1l-7.1,5.1c-0.4,0.3-1.1,0.3-1.6,0.1l-8.5-4.4
		c-0.5-0.3-0.5-0.7-0.1-1l7.1-5C166.7,266.1,167.4,266,167.9,266.3L167.9,266.3"/>
	<path id="rect3369" class="st17" d="M201.6,266.2l-8.7-4.5c-0.6-0.3-1.5-0.3-2,0.1l-7.1,5c-0.5,0.4-0.4,0.9,0.2,1.2l8.8,4.6
		c0.6,0.3,1.6,0.3,2.1-0.1l7-5.1C202.3,267.1,202.2,266.5,201.6,266.2L201.6,266.2"/>
	<path id="rect3371" class="st17" d="M191.6,273.5l-8.5-4.4c-0.6-0.3-1.5-0.3-2,0.1l-7.1,5c-0.5,0.4-0.4,0.9,0.2,1.3l8.8,4.6
		c0.6,0.3,1.5,0.3,2-0.1l6.7-5.2C192.3,274.4,192.2,273.9,191.6,273.5L191.6,273.5"/>
	<path id="rect3373" class="st17" d="M281.7,250.2l6.9-5.7c0.3-0.2,0.2-0.6-0.2-0.8l-9.2-4.3c-0.4-0.2-0.9-0.1-1.2,0.1l-6.9,5.5
		c-0.3,0.2-0.2,0.6,0.1,0.8l9.1,4.5C280.9,250.5,281.4,250.4,281.7,250.2L281.7,250.2"/>
	<path id="rect3375" class="st17" d="M263.3,208.1l-8-3.4c-0.4-0.1,0-0.7,0.9-1.3l17.4-12.1c0.7-0.5,1.6-0.8,1.9-0.7l7.7,3
		c0.3,0.1,0.1,0.7-0.6,1.2l-17,12.6C264.6,207.9,263.6,208.3,263.3,208.1L263.3,208.1"/>
	<path id="rect3377" class="st17" d="M147,291.9l-8.9-4.9c-0.4-0.2-1.2-0.2-1.6,0.2l-9.3,6.7c-0.5,0.3-0.5,0.8-0.1,1l8.8,5
		c0.4,0.3,1.2,0.2,1.6-0.2l9.4-6.8C147.5,292.6,147.5,292.1,147,291.9L147,291.9"/>
	<path id="rect3379" class="st15" d="M305,202.1l-17.8-6.9c-1.2-0.5-2.8-0.5-3.4,0l-11.9,8.8c-0.7,0.5-0.9,1,0.5,1.4l6.8,2.8
		c1.1,0.4,1.1,0.5,2-0.2l1.3-0.9c0.3-0.2,1.1-0.3,2,0.1l9.2,3.9c1,0.3,1.9,0.4,2.5-0.1l9.5-7.5C306.2,203,305.9,202.4,305,202.1
		L305,202.1"/>
	<path id="rect3381" class="st17" d="M260,251.9l-8.5-3.9c-0.4-0.2-1.1-0.2-1.4,0.1l-6.5,5c-0.3,0.3-0.3,0.6,0.2,0.9l8.4,4.1
		c0.5,0.2,1.1,0.2,1.4-0.1l6.5-5.2C260.5,252.5,260.5,252.2,260,251.9L260,251.9"/>
	<path id="rect3385" class="st17" d="M221.6,251.6l-8.2-4.1c-0.6-0.3-1.5-0.2-2.1,0.2l-7.4,5.3c-0.6,0.4-0.5,1,0.1,1.3l8.4,4.1
		c0.6,0.3,1.5,0.2,2.1-0.2l7.2-5.3C222.3,252.4,222.2,251.9,221.6,251.6L221.6,251.6"/>
	<path id="rect3387" class="st17" d="M217.8,258.8l9,4.4c0.7,0.4,0.9,1,0.4,1.3l-6.4,5c-0.5,0.4-1.5,0.4-2.3,0.1l-9-4.5
		c-0.7-0.4-0.9-1-0.3-1.4l6.4-4.8C216.1,258.4,217.1,258.4,217.8,258.8L217.8,258.8"/>
	<path id="rect3389" class="st17" d="M206.9,238.9l7.8,3.6c0.6,0.3,0.7,0.8,0.3,1.1l-6.5,4.8c-0.5,0.4-1.3,0.4-1.9,0.1l-7.5-4.1
		c-0.5-0.3-0.5-0.7-0.1-1.1l6.2-4.3C205.6,238.8,206.4,238.7,206.9,238.9L206.9,238.9"/>
	<path id="rect3391" class="st17" d="M297.5,222.4l17.9-14.4c0.8-0.7,1.2-1.3,0.8-1.5l-7.7-3c-0.4-0.1-1.3,0.3-2.1,0.9l-17.6,13.8
		c-0.9,0.7-1.3,1.4-1,1.6l7.5,3.7C295.6,223.6,296.6,223.1,297.5,222.4L297.5,222.4"/>
	<path id="path13125" class="st17" d="M256,225.6l-7.1-3.4c-0.7-0.3-1.7-0.3-2.2,0.1l-5.6,4c-0.6,0.4-0.5,1,0.2,1.4l7.2,3.7
		c0.7,0.4,1.8,0.3,2.4-0.1l5.6-4.3C256.9,226.6,256.7,226,256,225.6L256,225.6"/>
	<path id="path13127" class="st17" d="M242,266l-8.1-3.9c-0.6-0.3-1.5-0.2-2,0.2l-6.8,5.3c-0.5,0.4-0.4,0.9,0.2,1.2l8.2,4
		c0.6,0.3,1.5,0.2,2-0.2l6.7-5.3C242.7,266.8,242.6,266.3,242,266L242,266"/>
	<path id="path13129" class="st17" d="M238.3,255.9l5.8-4.5c0.5-0.4,0.3-0.9-0.5-1.3l-8.9-4.3c-0.7-0.3-1.6-0.3-2.1,0l-5.9,4.4
		c-0.5,0.4-0.3,0.9,0.4,1.3l8.9,4.4C236.9,256.3,237.9,256.3,238.3,255.9L238.3,255.9"/>
	<path id="path13131" class="st17" d="M247.1,249.1l5.9-4.7c0.6-0.5,0.4-1.1-0.5-1.5l-8.1-3.8c-0.8-0.4-1.9-0.3-2.5,0.1l-6.2,4.5
		c-0.6,0.5-0.5,1.2,0.3,1.6l8.4,4.1C245.3,249.7,246.5,249.6,247.1,249.1L247.1,249.1"/>
	<path id="path13133" class="st17" d="M267.8,245.1l-7.6-3.6c-0.6-0.3-1.4-0.2-1.8,0.1l-5.7,4.5c-0.4,0.3-0.3,0.8,0.3,1.1l7.9,3.7
		c0.6,0.3,1.4,0.2,1.8-0.1l5.4-4.6C268.5,245.8,268.3,245.4,267.8,245.1L267.8,245.1"/>
	<path id="path13135" class="st17" d="M276.4,238.1l-7.4-3.3c-0.6-0.3-1.4-0.2-1.9,0.2l-6,4.6c-0.5,0.4-0.4,0.9,0.2,1.2l7.4,3.5
		c0.6,0.3,1.5,0.2,2-0.2l6-4.8C277.1,238.9,277,238.4,276.4,238.1L276.4,238.1"/>
	<path id="path14377" class="st17" d="M256.1,242l5.8-4.5c0.6-0.4,0.3-1.1-0.5-1.5l-8.3-3.6c-0.8-0.3-1.9-0.3-2.4,0.1l-5.6,4.2
		c-0.6,0.4-0.4,1.1,0.4,1.4l8.1,3.9C254.4,242.5,255.5,242.5,256.1,242L256.1,242"/>
	<path id="path14379" class="st17" d="M229.8,262.4l5.9-4.6c0.4-0.3,0.2-0.9-0.4-1.2l-9-4.4c-0.7-0.3-1.6-0.3-2,0l-6,4.5
		c-0.4,0.3-0.3,0.9,0.4,1.2l9.1,4.5C228.4,262.8,229.4,262.8,229.8,262.4L229.8,262.4"/>
	<path id="path14381" class="st17" d="M251.2,258.5l-7.8-3.8c-0.6-0.3-1.5-0.2-2.1,0.2l-6.5,5.1c-0.5,0.4-0.5,1,0.2,1.3l7.9,3.9
		c0.6,0.3,1.6,0.2,2.1-0.2l6.5-5.2C251.9,259.4,251.8,258.8,251.2,258.5L251.2,258.5"/>
	<path id="path14383" class="st17" d="M230,244.8l-7.6-3.7c-0.7-0.4-1.8-0.3-2.4,0.1l-5.7,4.1c-0.6,0.4-0.4,1.1,0.3,1.4l7.5,3.8
		c0.8,0.4,1.8,0.3,2.4-0.1l5.7-4.3C231,245.8,230.8,245.2,230,244.8L230,244.8"/>
	<path id="path14385" class="st17" d="M279,225.7l5.9-4.6c0.6-0.5,1.6-0.6,2.2-0.3l6.6,3.2c0.7,0.3,0.7,1,0.1,1.4l-5.9,4.7
		c-0.6,0.5-1.6,0.6-2.3,0.3l-6.6-3.3C278.5,226.8,278.4,226.2,279,225.7L279,225.7"/>
	<path id="path20314" class="st17" d="M271.6,214l-7-3.2c-0.7-0.3-1.7-0.3-2.1,0l-4.8,3.5c-0.5,0.4-0.3,0.9,0.4,1.2l7.1,3.2
		c0.7,0.3,1.7,0.3,2.1-0.1l4.6-3.5C272.5,214.9,272.3,214.4,271.6,214L271.6,214"/>
	<path id="path20316" class="st17" d="M289,216.6l4.4-3.4c0.4-0.3,0.1-0.9-0.7-1.2l-7.9-3.3c-0.8-0.3-1.7-0.3-2.2,0l-4.3,3.2
		c-0.4,0.3-0.2,0.9,0.6,1.2l7.9,3.4C287.6,216.9,288.6,216.9,289,216.6L289,216.6"/>
	<path id="path20318" class="st17" d="M281.7,222.2l4.7-3.6c0.5-0.4,0.2-0.9-0.6-1.3l-8-3.4c-0.8-0.3-1.8-0.3-2.3,0l-4.8,3.6
		c-0.5,0.4-0.2,0.9,0.6,1.3l8,3.4C280.2,222.6,281.3,222.5,281.7,222.2L281.7,222.2"/>
	<path id="path20320" class="st17" d="M277.7,209.2l-7.1-2.8c-0.7-0.3-1.5-0.3-1.9,0l-3.8,2.8c-0.4,0.3-0.2,0.7,0.4,1l6.9,3.1
		c0.7,0.3,1.7,0.3,2.1,0l4-3.1C278.8,210,278.5,209.5,277.7,209.2L277.7,209.2"/>
	<path id="path20322" class="st17" d="M264.1,219.6l-7.1-3.2c-0.7-0.3-1.7-0.3-2.2,0.1l-5.2,3.6c-0.5,0.4-0.4,0.9,0.3,1.3l7,3.4
		c0.7,0.4,1.7,0.3,2.3-0.1l5.3-3.8C265,220.5,264.9,219.9,264.1,219.6L264.1,219.6"/>
	<path id="path20324" class="st17" d="M284.7,231.3l-6.7-3.3c-0.7-0.3-1.7-0.2-2.2,0.2l-5.7,4.4c-0.6,0.5-0.5,1.1,0.2,1.4l6.9,3.2
		c0.7,0.3,1.7,0.2,2.2-0.2l5.5-4.4C285.5,232.2,285.4,231.6,284.7,231.3L284.7,231.3"/>
	<path id="path20326" class="st17" d="M264.9,235.1l5.5-4.2c0.5-0.4,0.3-1-0.5-1.4l-8.1-3.5c-0.8-0.3-1.9-0.3-2.4,0.1l-5.4,4.1
		c-0.5,0.4-0.3,1,0.5,1.4l8.1,3.6C263.3,235.6,264.4,235.6,264.9,235.1L264.9,235.1"/>
	<path id="path21282" class="st17" d="M273.3,228.7l5.6-4.3c0.6-0.4,0.3-1-0.5-1.4l-8.1-3.4c-0.8-0.3-1.9-0.3-2.4,0.1l-5.6,4.2
		c-0.6,0.4-0.4,1,0.4,1.4l8.1,3.5C271.6,229.2,272.8,229.1,273.3,228.7L273.3,228.7"/>
	<g id="g5349" transform="matrix(1.0228 0 0 1.0228 -6.12734 -1.97357)">
		<path id="path3281" class="st18" d="M197.6,314l-7.5,6.3c-0.4,0.3-1,0.4-1.4,0.1l-8.3-4.8c-0.4-0.2-0.4-0.7,0-1l7.6-6.2
			c0.4-0.3,1-0.4,1.4-0.1l8.2,4.7C197.9,313.3,198,313.7,197.6,314L197.6,314"/>
		<path id="path3283" class="st18" d="M169.5,307l15.6-12c1.1-0.8,2.4-1.3,2.9-1l7.2,4c0.5,0.3,0.1,1.2-0.9,2.1l-15.2,12.3
			c-1.2,1-2.6,1.5-3.2,1.2l-7.7-4.3C167.7,309,168.3,308,169.5,307L169.5,307"/>
		<path id="path3285" class="st18" d="M180.8,294.1l-8.5-4.5c-0.6-0.3-1.8,0-2.8,0.7l-13.4,10c-1,0.7-1.3,1.6-0.7,1.9l8.5,4.8
			c0.6,0.3,1.9,0,2.9-0.7l13.4-10.3C181.1,295.2,181.4,294.4,180.8,294.1L180.8,294.1"/>
		<path id="path3287" class="st18" d="M163.9,290.1l-7.7-4.1c-0.4-0.2-1.3-0.1-1.9,0.4l-10.6,7.6c-0.6,0.5-0.8,1-0.4,1.3l7.7,4.4
			c0.5,0.3,1.4,0.1,2-0.4l10.6-7.9C164.2,290.9,164.4,290.4,163.9,290.1L163.9,290.1"/>
		<path id="path3289" class="st18" d="M148.4,286.6l-7.5-4.1c-0.4-0.2-1-0.1-1.4,0.1l-7.9,5.6c-0.4,0.3-0.4,0.7,0,0.9l7.4,4.2
			c0.4,0.2,1,0.2,1.4-0.1l7.9-5.7C148.8,287.2,148.8,286.8,148.4,286.6L148.4,286.6"/>
		<path id="path3291" class="st18" d="M207.8,306.8l-5.8,4.8c-0.6,0.5-1.7,0.5-2.4,0.1l-7.7-4.4c-0.8-0.5-0.9-1.2-0.3-1.7l6.1-4.9
			c0.6-0.5,1.7-0.5,2.5,0l7.3,4.5C208.2,305.5,208.3,306.3,207.8,306.8L207.8,306.8"/>
		<path id="path3293" class="st18" d="M217.4,298.6l-6.2,5.2c-0.4,0.3-1.1,0.3-1.7,0l-8.1-5c-0.5-0.3-0.6-0.8-0.2-1.1l6-4.8
			c0.4-0.3,1.1-0.3,1.5,0l8.3,4.6C217.7,297.8,217.8,298.3,217.4,298.6L217.4,298.6"/>
		<path id="path3295" class="st18" d="M226.3,291.1l-5.5,4.6c-0.5,0.4-1.4,0.4-2.1,0.1l-7.6-4.3c-0.7-0.4-0.8-1-0.3-1.4l5.6-4.6
			c0.5-0.4,1.4-0.4,2.1,0l7.5,4.2C226.7,290.1,226.8,290.7,226.3,291.1L226.3,291.1"/>
		<path id="path3297" class="st18" d="M204.7,290.7l-7.4-3.8c-0.5-0.2-1.1-0.2-1.4,0.1l-5.5,4.4c-0.3,0.3-0.3,0.7,0.2,0.9l7.2,3.9
			c0.5,0.3,1.1,0.2,1.5-0.1l5.7-4.6C205.3,291.4,205.2,291,204.7,290.7L204.7,290.7"/>
		<path id="path3299" class="st18" d="M190.4,286.8l-8.1-4.3c-0.6-0.3-1.5-0.3-2,0l-5.8,4.3c-0.5,0.4-0.3,0.9,0.3,1.3l8.1,4.5
			c0.7,0.4,1.6,0.4,2,0l5.7-4.5C191.2,287.7,191,287.1,190.4,286.8L190.4,286.8"/>
		<path id="path3301" class="st18" d="M150.7,275.4l8.1,4.3c0.3,0.1,0.3,0.4,0.1,0.5l-7.1,5.2c-0.2,0.2-0.6,0.2-0.9,0l-8-4.5
			c-0.3-0.1-0.3-0.4,0-0.5l7-5C150.1,275.3,150.5,275.3,150.7,275.4L150.7,275.4"/>
		<path id="path3303" class="st18" d="M173.7,283.1l-7.6-4c-0.6-0.3-1.3-0.3-1.8,0l-5.8,4.3c-0.4,0.3-0.3,0.8,0.2,1.1l7.6,4.1
			c0.6,0.3,1.4,0.3,1.8,0l5.8-4.4C174.4,283.9,174.3,283.4,173.7,283.1L173.7,283.1"/>
		<path id="path3305" class="st18" d="M183.1,276.1l-7.4-3.8c-0.5-0.3-1.3-0.3-1.7,0l-6.1,4.3c-0.5,0.3-0.4,0.8,0.2,1.1l7.7,4
			c0.5,0.3,1.3,0.2,1.8-0.1l5.9-4.5C183.8,276.8,183.7,276.3,183.1,276.1L183.1,276.1"/>
		<path id="path3307" class="st18" d="M160.6,268.9l7.6,4c0.4,0.2,0.4,0.5,0.1,0.8l-6.5,4.6c-0.3,0.2-0.9,0.3-1.3,0.1l-7.8-4.1
			c-0.4-0.2-0.4-0.5-0.1-0.8l6.6-4.6C159.7,268.7,160.2,268.7,160.6,268.9L160.6,268.9"/>
		<path id="path3309" class="st18" d="M170.1,262.2l7.3,3.8c0.4,0.2,0.5,0.6,0.1,0.8l-6.2,4.5c-0.4,0.3-1,0.3-1.4,0.1l-7.4-3.9
			c-0.4-0.2-0.5-0.6-0.1-0.9l6.2-4.4C169.1,262.1,169.7,262,170.1,262.2L170.1,262.2"/>
		<path id="path3311" class="st18" d="M180.2,255l7.4,3.8c0.4,0.2,0.4,0.5,0.1,0.8l-6.8,5.1c-0.3,0.3-0.9,0.3-1.3,0.1l-7.7-4
			c-0.4-0.2-0.4-0.6,0-0.8l7.1-5C179.3,254.9,179.9,254.9,180.2,255L180.2,255"/>
		<path id="path3313" class="st18" d="M192.6,269l-7.6-3.9c-0.5-0.3-1.3-0.3-1.8,0l-6.3,4.5c-0.5,0.3-0.4,0.8,0.2,1.1l7.9,4.1
			c0.6,0.3,1.4,0.3,1.8-0.1l6-4.6C193.2,269.7,193.1,269.3,192.6,269L192.6,269"/>
		<path id="path3315" class="st18" d="M199.6,279.5l-8-4.1c-0.6-0.3-1.5-0.3-1.9,0l-5.8,4.3c-0.5,0.4-0.4,0.9,0.3,1.2l7.9,4.4
			c0.7,0.4,1.6,0.4,2,0l5.8-4.6C200.4,280.4,200.3,279.9,199.6,279.5L199.6,279.5"/>
		<path id="path3317" class="st18" d="M214.3,283.3l-7.5-3.8c-0.4-0.2-1.1-0.2-1.5,0.1l-6.3,4.8c-0.4,0.3-0.3,0.7,0.1,1l7.7,4
			c0.5,0.2,1.2,0.2,1.5-0.1l6.1-5C214.9,283.9,214.8,283.5,214.3,283.3L214.3,283.3"/>
		<path id="path5259" class="st19" d="M220.7,281.9l47.6-38.2c0.6-0.5,1.7-0.5,2.6,0l6.3,3.1c0.9,0.4,1.2,1.2,0.6,1.6L231,287.8
			c-0.7,0.6-2,0.6-3,0.1l-6.9-3.9C220.2,283.4,220,282.5,220.7,281.9L220.7,281.9"/>
		<path id="path5261" class="st18" d="M224.1,275.6l-7.5-3.7c-0.4-0.2-1.1-0.2-1.5,0.1l-6.5,5c-0.4,0.3-0.4,0.7,0.1,0.9l7.5,3.9
			c0.4,0.2,1.1,0.2,1.5-0.1l6.4-5.2C224.6,276.2,224.5,275.8,224.1,275.6L224.1,275.6"/>
		<path id="path5263" class="st18" d="M189.6,248.3l7.3,4c0.3,0.2,0.3,0.5,0,0.6l-6.4,4.5c-0.3,0.2-0.7,0.2-1,0.1l-7.4-3.8
			c-0.3-0.2-0.4-0.5-0.1-0.7l6.6-4.7C188.8,248.2,189.3,248.2,189.6,248.3L189.6,248.3"/>
		<path id="path5265" class="st18" d="M202,261.7l-7.5-3.8c-0.5-0.3-1.3-0.2-1.7,0.1l-6.1,4.3c-0.4,0.3-0.4,0.8,0.2,1.1l7.6,4
			c0.5,0.3,1.3,0.3,1.8-0.1l6-4.4C202.7,262.4,202.6,261.9,202,261.7L202,261.7"/>
		<path id="path5267" class="st18" d="M200.5,268.2l8.8,4.5c0.4,0.2,0.5,0.5,0.2,0.7l-6.4,4.9c-0.3,0.2-0.8,0.2-1.2,0l-8.8-4.5
			c-0.4-0.2-0.5-0.5-0.2-0.8l6.4-4.8C199.6,268,200.1,268,200.5,268.2L200.5,268.2"/>
		<path id="path5269" class="st18" d="M209.8,261.7l8.1,4c0.6,0.3,0.7,0.8,0.3,1.1l-5.6,4.3c-0.4,0.3-1.2,0.3-1.8,0l-8.1-4.2
			c-0.6-0.3-0.7-0.8-0.3-1.1l5.7-4.2C208.5,261.4,209.2,261.4,209.8,261.7L209.8,261.7"/>
		<path id="path5271" class="st18" d="M232.4,268.9l-7-3.4c-0.6-0.3-1.4-0.3-1.9,0.1l-5.1,3.9c-0.4,0.3-0.3,0.9,0.3,1.2l7,3.5
			c0.6,0.3,1.5,0.3,1.9-0.1l5.1-4C233.2,269.7,233.1,269.2,232.4,268.9L232.4,268.9"/>
		<path id="path5273" class="st18" d="M199.4,241.5l7.1,3.8c0.4,0.2,0.4,0.6,0,0.8l-6.7,4.8c-0.4,0.3-0.9,0.3-1.3,0.1l-7.1-3.9
			c-0.4-0.2-0.4-0.6,0-0.8l6.7-4.7C198.5,241.4,199,241.3,199.4,241.5L199.4,241.5"/>
		<path id="path5275" class="st18" d="M212,254.9l-7.7-3.8c-0.4-0.2-1.1-0.2-1.4,0.1l-6.3,4.4c-0.4,0.3-0.3,0.6,0.1,0.9l7.6,4
			c0.4,0.2,1.1,0.2,1.5-0.1l6.4-4.6C212.6,255.5,212.5,255.1,212,254.9L212,254.9"/>
		<path id="path5277" class="st18" d="M219,254.9l7.8,3.9c0.6,0.3,0.8,0.8,0.4,1.2l-5.6,4.4c-0.5,0.4-1.3,0.4-2,0.1l-7.9-4
			c-0.6-0.3-0.8-0.8-0.3-1.2l5.6-4.2C217.5,254.6,218.3,254.6,219,254.9L219,254.9"/>
		<path id="path5279" class="st18" d="M241.8,261.6l-7.2-3.5c-0.5-0.3-1.3-0.2-1.7,0.2l-6,4.6c-0.4,0.3-0.4,0.8,0.2,1.1l7.2,3.5
			c0.5,0.3,1.3,0.2,1.8-0.2l5.9-4.7C242.4,262.3,242.4,261.8,241.8,261.6L241.8,261.6"/>
		<path id="path5281" class="st18" d="M230.4,257.4l5.2-4c0.4-0.3,0.2-0.8-0.4-1l-7.8-3.8c-0.6-0.3-1.3-0.3-1.7,0l-5.2,3.9
			c-0.4,0.3-0.2,0.8,0.3,1l7.9,3.9C229.2,257.7,230,257.7,230.4,257.4L230.4,257.4"/>
		<path id="path5283" class="st18" d="M221.9,247.5l-7.3-3.6c-0.5-0.3-1.4-0.2-1.9,0.1l-6.6,4.7c-0.5,0.3-0.4,0.8,0.1,1.1l7.4,3.6
			c0.5,0.3,1.4,0.2,1.9-0.2l6.4-4.7C222.5,248.3,222.5,247.8,221.9,247.5L221.9,247.5"/>
		<path id="path5285" class="st18" d="M208.3,235.5l6.9,3.2c0.5,0.2,0.6,0.7,0.2,1l-5.8,4.3c-0.4,0.3-1.2,0.3-1.7,0.1l-6.7-3.6
			c-0.4-0.2-0.5-0.7-0.1-0.9l5.5-3.8C207.1,235.4,207.8,235.3,208.3,235.5L208.3,235.5"/>
		<path id="path5287" class="st18" d="M230.2,240.9l-6.7-3.2c-0.7-0.3-1.6-0.3-2.1,0.1l-5.1,3.7c-0.5,0.4-0.4,0.9,0.3,1.3l6.7,3.4
			c0.7,0.3,1.6,0.3,2.2-0.1l5.1-3.8C231.1,241.8,230.9,241.3,230.2,240.9L230.2,240.9"/>
		<path id="path5289" class="st18" d="M217.4,228.9l7.2,3.3c0.4,0.2,0.4,0.5,0.1,0.7l-6.2,4.5c-0.3,0.2-0.9,0.3-1.2,0.1l-7.3-3.4
			c-0.4-0.2-0.4-0.5-0.1-0.7l6.3-4.4C216.5,228.7,217,228.7,217.4,228.9L217.4,228.9"/>
		<path id="path5291" class="st18" d="M250.9,254.3l-7-3.4c-0.6-0.3-1.4-0.2-1.8,0.2l-5.8,4.5c-0.5,0.4-0.4,0.9,0.2,1.2l7,3.5
			c0.6,0.3,1.4,0.2,1.9-0.2l5.8-4.6C251.6,255.1,251.5,254.6,250.9,254.3L250.9,254.3"/>
		<path id="path5293" class="st18" d="M238.8,251.2l5.2-4c0.4-0.3,0.2-0.8-0.4-1.1l-7.9-3.8c-0.6-0.3-1.5-0.3-1.9,0l-5.2,3.9
			c-0.4,0.3-0.3,0.8,0.4,1.1l7.9,3.9C237.5,251.5,238.3,251.5,238.8,251.2L238.8,251.2"/>
		<path id="path5295" class="st18" d="M259.4,247.8l-7.4-3.4c-0.4-0.2-0.9-0.1-1.2,0.1l-5.6,4.4c-0.3,0.2-0.2,0.6,0.1,0.8l7.4,3.6
			c0.4,0.2,1,0.2,1.3-0.1l5.7-4.5C259.8,248.4,259.8,248,259.4,247.8L259.4,247.8"/>
		<path id="path5297" class="st18" d="M267,241.2l-6.6-3.1c-0.5-0.2-1.2-0.2-1.5,0.1l-5,3.9c-0.4,0.3-0.3,0.7,0.2,1l6.9,3.2
			c0.5,0.2,1.2,0.2,1.6-0.1l4.7-4C267.6,241.8,267.5,241.4,267,241.2L267,241.2"/>
		<path id="path5299" class="st18" d="M281.2,245.2l5.9-4.9c0.2-0.2,0.2-0.5-0.2-0.7l-7.9-3.7c-0.3-0.2-0.8-0.1-1,0.1l-5.9,4.7
			c-0.3,0.2-0.2,0.5,0.1,0.7l7.8,3.9C280.5,245.5,281,245.4,281.2,245.2L281.2,245.2"/>
		<path id="path5301" class="st18" d="M287.7,229.4l7.8,3.4c0.5,0.2,0.6,0.6,0.3,0.9l-5.7,4.6c-0.3,0.3-1,0.3-1.5,0.1l-7.6-3.6
			c-0.4-0.2-0.5-0.6-0.2-0.9l5.5-4.4C286.6,229.3,287.2,229.2,287.7,229.4L287.7,229.4"/>
		<path id="path5303" class="st18" d="M298.9,231l4.9-4c0.5-0.4,0.3-1-0.3-1.3l-6.7-3.1c-0.7-0.3-1.7-0.2-2.2,0.2l-5.1,4.1
			c-0.5,0.4-0.4,1,0.4,1.3l6.9,3C297.5,231.5,298.4,231.4,298.9,231L298.9,231"/>
		<path id="path5305" class="st18" d="M226.8,222.5l6.5,2.8c0.5,0.2,0.5,0.6,0.1,0.9l-5.7,4.1c-0.4,0.3-1.1,0.4-1.6,0.2l-6.6-3
			c-0.5-0.2-0.5-0.6-0.1-0.9l5.7-4C225.7,222.4,226.4,222.3,226.8,222.5L226.8,222.5"/>
		<path id="path5307" class="st18" d="M238.5,234.8l-6.6-3.3c-0.6-0.3-1.4-0.3-1.8,0.1l-5,3.6c-0.4,0.3-0.3,0.8,0.3,1.1l6.6,3.2
			c0.6,0.3,1.4,0.2,1.8-0.1l5-3.6C239.2,235.5,239.1,235,238.5,234.8L238.5,234.8"/>
		<path id="path5309" class="st18" d="M247.3,244.4l5.2-4.1c0.5-0.4,0.3-1-0.4-1.3l-7.1-3.3c-0.7-0.3-1.7-0.3-2.2,0.1l-5.4,3.9
			c-0.6,0.4-0.4,1,0.3,1.4l7.3,3.5C245.7,244.9,246.7,244.8,247.3,244.4L247.3,244.4"/>
		<path id="path5311" class="st18" d="M256.1,237.4l5-3.9c0.5-0.4,0.3-0.9-0.5-1.3l-7.1-3.1c-0.7-0.3-1.6-0.2-2.1,0.1l-4.8,3.6
			c-0.5,0.4-0.4,0.9,0.3,1.2l6.9,3.3C254.6,237.8,255.6,237.8,256.1,237.4L256.1,237.4"/>
		<path id="path5313" class="st18" d="M247,228.5l-6.3-3.2c-0.6-0.3-1.5-0.3-2,0.1l-5,3.6c-0.5,0.4-0.4,0.9,0.3,1.3l6.5,3.3
			c0.7,0.3,1.6,0.3,2.1-0.1l4.8-3.7C247.8,229.3,247.6,228.8,247,228.5L247,228.5"/>
		<path id="path5315" class="st18" d="M275.4,234.4l-6.5-2.9c-0.5-0.2-1.3-0.2-1.7,0.2l-5.3,4.1c-0.4,0.3-0.4,0.8,0.1,1l6.5,3.1
			c0.5,0.3,1.3,0.2,1.7-0.2l5.3-4.2C276.1,235.1,276,234.6,275.4,234.4L275.4,234.4"/>
		<path id="path5317" class="st18" d="M283.7,227.7l-5.9-2.9c-0.6-0.3-1.5-0.2-2,0.2l-5.1,3.9c-0.5,0.4-0.4,1,0.2,1.2l6.1,2.9
			c0.6,0.3,1.5,0.2,2-0.2l4.9-3.9C284.4,228.5,284.3,228,283.7,227.7L283.7,227.7"/>
		<path id="path5319" class="st18" d="M264.7,230.9l4.8-3.7c0.5-0.4,0.3-0.9-0.5-1.2l-7.1-3.1c-0.7-0.3-1.7-0.3-2.1,0.1l-4.8,3.6
			c-0.5,0.4-0.3,0.9,0.4,1.2l7.1,3.2C263.3,231.3,264.3,231.3,264.7,230.9L264.7,230.9"/>
		<path id="path5321" class="st18" d="M255.6,222.2l-6.3-3c-0.6-0.3-1.5-0.3-2,0.1l-5,3.5c-0.5,0.4-0.4,0.9,0.2,1.2l6.3,3.3
			c0.7,0.3,1.6,0.3,2.1-0.1l5-3.8C256.4,223.1,256.2,222.5,255.6,222.2L255.6,222.2"/>
		<path id="path5323" class="st18" d="M236.3,215.7l6.5,2.9c0.5,0.2,0.5,0.6,0.1,0.9l-5.8,4.2c-0.4,0.3-1.1,0.4-1.6,0.2l-6.6-3
			c-0.5-0.2-0.5-0.6-0.1-0.9l5.9-4.2C235.1,215.6,235.8,215.5,236.3,215.7L236.3,215.7"/>
		<path id="path5325" class="st18" d="M245,209.6l6.6,2.9c0.5,0.2,0.6,0.6,0.2,0.9l-5.4,3.9c-0.4,0.3-1.1,0.3-1.6,0.1l-6.6-2.9
			c-0.5-0.2-0.5-0.6-0.1-0.9l5.3-3.8C243.8,209.5,244.5,209.4,245,209.6L245,209.6"/>
		<path id="path5327" class="st18" d="M263.6,216.3l-6.3-2.9c-0.6-0.3-1.5-0.2-1.9,0.1l-4.6,3.2c-0.5,0.3-0.4,0.8,0.2,1.1l6.2,3
			c0.6,0.3,1.5,0.3,2-0.1l4.7-3.4C264.4,217.1,264.3,216.6,263.6,216.3L263.6,216.3"/>
		<path id="path5329" class="st18" d="M272.9,224.5l4.8-3.7c0.5-0.4,0.3-0.9-0.4-1.2l-7-2.9c-0.7-0.3-1.6-0.2-2.1,0.1l-4.8,3.6
			c-0.5,0.4-0.3,0.9,0.4,1.2l7,3C271.5,224.9,272.4,224.9,272.9,224.5L272.9,224.5"/>
		<path id="path5331" class="st18" d="M279.7,222l5.1-4c0.5-0.4,1.4-0.5,1.9-0.2l5.7,2.7c0.6,0.3,0.6,0.8,0.1,1.2l-5.1,4.1
			c-0.5,0.4-1.4,0.5-2,0.2l-5.7-2.8C279.2,223,279.1,222.4,279.7,222L279.7,222"/>
		<path id="path5333" class="st18" d="M270.9,210.9l-6.1-2.8c-0.6-0.3-1.5-0.3-1.9,0l-4.3,3.1c-0.4,0.3-0.3,0.8,0.4,1.1l6.3,2.8
			c0.6,0.3,1.5,0.2,1.9-0.1l4.1-3.1C271.7,211.6,271.5,211.2,270.9,210.9L270.9,210.9"/>
		<path id="path5335" class="st18" d="M254.4,202.7l7.3,3.1c0.3,0.1,0.3,0.4,0.1,0.6l-6.7,4.9c-0.3,0.2-0.8,0.3-1.1,0.1l-7.5-3.2
			c-0.3-0.1-0.3-0.4,0-0.6l6.9-4.8C253.7,202.7,254.1,202.6,254.4,202.7L254.4,202.7"/>
		<path id="path5337" class="st18" d="M281.2,218.4l4.2-3.2c0.4-0.3,0.2-0.8-0.5-1.1l-7.1-3c-0.7-0.3-1.6-0.3-2,0l-4.3,3.2
			c-0.4,0.3-0.2,0.8,0.5,1.1l7.1,3C279.8,218.7,280.7,218.7,281.2,218.4L281.2,218.4"/>
		<path id="path5339" class="st18" d="M297.2,218l16.2-13.1c0.8-0.6,1.1-1.2,0.7-1.4l-7-2.7c-0.3-0.1-1.2,0.2-1.9,0.8l-16,12.5
			c-0.8,0.6-1.2,1.3-0.9,1.4l6.8,3.3C295.4,219.1,296.3,218.7,297.2,218L297.2,218"/>
		<path id="path5341" class="st18" d="M288.2,212.8l3.8-3c0.4-0.3,0.1-0.8-0.6-1.1l-6.9-2.9c-0.7-0.3-1.5-0.3-1.9,0l-3.8,2.8
			c-0.4,0.3-0.2,0.8,0.5,1l6.9,3C287,213.1,287.8,213.1,288.2,212.8L288.2,212.8"/>
		<path id="path5343" class="st18" d="M276.9,206.1l-6.1-2.4c-0.6-0.2-1.3-0.2-1.6,0l-3.4,2.4c-0.3,0.2-0.2,0.7,0.4,0.9l6,2.7
			c0.6,0.3,1.5,0.3,1.8,0l3.5-2.7C277.8,206.8,277.5,206.4,276.9,206.1L276.9,206.1"/>
		<path id="path5345" class="st18" d="M263.7,204.4l-7.4-3.2c-0.3-0.1,0-0.7,0.8-1.2l16-11.2c0.7-0.5,1.4-0.7,1.7-0.6l7.1,2.7
			c0.3,0.1,0.1,0.6-0.6,1.1l-15.7,11.6C264.9,204.2,264,204.6,263.7,204.4L263.7,204.4"/>
		<path id="path5347" class="st19" d="M303.2,199l-16.2-6.3c-1.1-0.4-2.5-0.4-3.1,0l-10.9,8c-0.7,0.5-0.8,0.9,0.5,1.2l6.2,2.5
			c1,0.4,1,0.4,1.9-0.2l1.2-0.8c0.3-0.2,1-0.3,1.8,0.1l8.4,3.6c0.9,0.3,1.7,0.3,2.2-0.1l8.7-6.8C304.2,199.9,304,199.3,303.2,199
			L303.2,199"/>
	</g>
	<path id="path2379" class="st20" d="M192.8,317.2c2.2,1.3,1.9,2.3-0.6,4.5c-2.5,2.2,0.7-1,1.4-2
		C194.4,318.6,190.7,315.9,192.8,317.2z"/>
	<path id="path3350" class="st20" d="M213.2,301.2c2.2,1.3,2.6,2,0.2,4.2c-2.5,2.2,0.5-1,1.3-2C215.4,302.3,211,299.8,213.2,301.2z"
		/>
	<path id="path3352" class="st20" d="M203.5,309.3c2.2,1.3,2.7,1.8,0.3,4c-2.5,2.2,0.6-1.2,1.1-1.9
		C205.4,310.7,201.3,308,203.5,309.3z"/>
	<path id="path3354" class="st20" d="M222.5,293.5c2.2,1.3,2.7,1.8,0.3,4c-2.5,2.2,1.2-0.9,1-2.1
		C223.6,294.2,220.4,292.1,222.5,293.5z"/>
	<path id="path3356" class="st20" d="M200.5,294.4c2.1,1.3,2.5,1.8,0,3.9c-2.6,2.1,1.1-1.5,1.3-2C202,295.8,198.4,293,200.5,294.4z"
		/>
	<path id="path3358" class="st20" d="M186,290.3c2.6,1.4,2.9,1.9,0.3,4c-2.7,2.1,1.1-1.1,1.1-2.1C187.4,291.2,183.4,288.9,186,290.3
		z"/>
	<path id="path3360" class="st20" d="M168.2,286.4c2.3,1.2,3,1.9,0.3,4c-2.7,2.1,1.4-1.1,1.2-2.1
		C169.4,287.4,165.9,285.2,168.2,286.4z"/>
	<path id="path3362" class="st20" d="M153,282.5c2.2,1.3,2.9,2,0.3,4c-2.6,2,1.2-0.9,1-2.1C154,283.1,150.8,281.2,153,282.5z"/>
	<path id="path3364" class="st20" d="M158.1,293.6c2.2,1.3,2.9,1.9,0.3,4c-2.6,2.1-4.2,3.2-0.7,0.1
		C161.2,294.6,156,292.2,158.1,293.6z"/>
	<path id="path3366" class="st20" d="M175.7,297.6c3.6,1.9,3.1,1.7-2.6,6.2c-5.7,4.5,2.6-2.8,3.5-3.7
		C177.4,299.2,172.2,295.7,175.7,297.6z"/>
	<path id="path3368" class="st20" d="M190.2,301.4c2.2,1.3,2.3,2.9-3.8,7.9c-6.1,4.9,5.7-4.4,4.1-6.4
		C189,300.9,188.1,300.1,190.2,301.4z"/>
	<path id="path3370" class="st20" d="M142.2,289.7c2.6,1.5,2.7,2.2,0,4.2c-2.7,2,1.4-1.3,1.2-2.2
		C143.2,290.7,139.6,288.2,142.2,289.7z"/>
	<path id="path3372" class="st20" d="M162.7,275.6c2.2,1.3,2.9,2,0.3,4c-2.6,2,0.8-1.3,1.2-1.9C164.6,277.3,160.6,274.2,162.7,275.6
		z"/>
	<path id="path3374" class="st20" d="M178.3,279.1c2.2,1.3,2.7,1.8,0.3,4c-2.5,2.2,1-0.8,0.8-2.1
		C179.1,279.8,176.1,277.8,178.3,279.1z"/>
	<path id="path3376" class="st20" d="M195.3,282.9c2.2,1.3,2.7,1.8,0.3,4c-2.5,2.2,1-0.8,0.8-2.1
		C196.1,283.5,193.1,281.6,195.3,282.9z"/>
	<path id="path3378" class="st20" d="M210.1,286.6c2.8,1.4,3.2,1.8,0.3,4c-2.9,2.2,1.3-1.3,1.3-2.2
		C211.5,287.6,207.2,285.2,210.1,286.6z"/>
	<path id="path3380" class="st20" d="M172.1,268.7c2.2,1.3,2.9,2,0.3,4c-2.5,2,1-0.9,1-2C173.4,269.5,170,267.3,172.1,268.7z"/>
	<path id="path3382" class="st20" d="M187.7,271.9c2.2,1.2,2.9,1.9,0.3,4c-2.5,2.1,1.2-0.8,1-2C188.8,272.6,185.5,270.6,187.7,271.9
		z"/>
	<path id="path3384" class="st20" d="M204.6,275.7c2.2,1.3,2.7,1.8,0.3,4c-2.5,2.2,1-0.8,0.8-2.1
		C205.4,276.3,202.4,274.4,204.6,275.7z"/>
	<path id="path3386" class="st20" d="M220.2,278.6c3,1.7,2.7,1.8,0.3,4c-2.5,2.2,1.3-1.4,1.2-2.2C221.6,279.7,217.2,277,220.2,278.6
		z"/>
	<path id="path3388" class="st20" d="M274.4,249.7c4.6,2.6,4.1,1.4-6.5,10.2c-10.5,8.7,3.5-4.2,6.2-6.8
		C276.9,250.6,269.7,247.1,274.4,249.7z"/>
	<path id="path3390" class="st20" d="M228.6,271.3c2.2,1.3,2.7,1.8,0.3,4c-2.5,2.2,1-0.8,0.8-2.1C229.4,272,226.4,270,228.6,271.3z"
		/>
	<path id="path3392" class="st20" d="M238.3,264.7c2.2,1.3,2.7,1.8,0.3,4c-2.5,2.2,1-0.8,0.8-2.1
		C239.2,265.3,236.2,263.4,238.3,264.7z"/>
	<path id="path3394" class="st20" d="M247.2,257.5c2.2,1.3,2.7,1.8,0.3,4c-2.5,2.2,1-0.8,0.8-2.1
		C248.1,258.2,245.1,256.2,247.2,257.5z"/>
	<path id="path3396" class="st20" d="M255.7,250.4c2.2,1.3,2.7,1.8,0.3,4c-2.5,2.2,1-0.8,0.8-2.1C256.5,251,253.5,249.1,255.7,250.4
		z"/>
	<path id="path3398" class="st20" d="M212.1,268.4c2.2,1.3,2.7,1.8,0.3,4c-2.5,2.2,1-0.8,0.8-2.1
		C212.9,269.1,209.9,267.1,212.1,268.4z"/>
	<path id="path3400" class="st20" d="M197.5,264.5c3.8,2,3.1,1.9,0.3,4c-2.8,2,0.4-0.8,1.2-1.9C199.8,265.5,193.8,262.5,197.5,264.5
		z"/>
	<path id="path3402" class="st20" d="M182.5,261.5c2.8,1.7,3.2,1.8,0.3,4c-2.9,2.2,1.3-0.8,1.1-2
		C183.6,262.2,179.7,259.9,182.5,261.5z"/>
	<path id="path3404" class="st20" d="M191.5,254.5c2.2,1.3,2.7,1.8,0.3,4c-2.5,2.2,1-0.8,0.8-2.1
		C192.4,255.1,189.4,253.2,191.5,254.5z"/>
	<path id="path3406" class="st20" d="M201.8,247.9c2.2,1.3,2.7,1.8,0.3,4c-2.5,2.2,1-0.8,0.8-2.1
		C202.7,248.5,199.7,246.6,201.8,247.9z"/>
	<path id="path3408" class="st20" d="M207,257.3c2.2,1.3,2.7,1.8,0.3,4c-2.5,2.2,1-0.8,0.8-2.1C207.8,258,204.8,256,207,257.3z"/>
	<path id="path3410" class="st20" d="M216.9,250c2.2,1.3,2.7,1.8,0.3,4c-2.5,2.2,1-0.8,0.8-2.1C217.8,250.6,214.8,248.7,216.9,250z"
		/>
	<path id="path3412" class="st20" d="M223.1,261.6c2.2,1.3,2.7,1.8,0.3,4c-2.5,2.2,1-0.8,0.8-2.1
		C223.9,262.2,220.9,260.2,223.1,261.6z"/>
	<path id="path3414" class="st20" d="M231.4,255.1c2.2,1.3,2.7,1.8,0.3,4c-2.5,2.2,1-0.8,0.8-2.1
		C232.3,255.8,229.3,253.8,231.4,255.1z"/>
	<path id="path3416" class="st20" d="M226.3,243.2c2.2,1.3,2.7,1.8,0.3,4c-2.5,2.2,1-0.8,0.8-2.1
		C227.1,243.9,224.1,241.9,226.3,243.2z"/>
	<path id="path3418" class="st20" d="M240,248.6c2.4,1.2,2.8,1.8,0.4,4c-2.5,2.2,1.3-1.5,1.2-2.2C241.5,249.7,237.6,247.4,240,248.6
		z"/>
	<path id="path3420" class="st20" d="M210.9,241c2.2,1.3,2.7,1.8,0.3,4c-2.5,2.2,1-0.8,0.8-2.1C211.7,241.6,208.7,239.7,210.9,241z"
		/>
	<path id="path3422" class="st20" d="M219.9,234c2.4,1.2,3,2,0.3,4c-2.7,2.1,1.4-1.6,1.3-2.3C221.4,235,217.5,232.9,219.9,234z"/>
	<path id="path3424" class="st20" d="M243.6,230.5c2.4,1.3,3.2,1.6,0.3,4c-2.9,2.4,1.4-0.9,1.2-2.2
		C244.9,231,241.3,229.2,243.6,230.5z"/>
	<path id="path3426" class="st20" d="M234.7,236.8c2.3,1.2,2.9,2,0.3,4c-2.6,2,1.4-1.4,1.3-2.2C236.1,237.8,232.4,235.7,234.7,236.8
		z"/>
	<path id="path3428" class="st20" d="M281.4,229.8c2.3,1.2,2.7,2,0.3,4c-2.4,2,0.8-1.1,1.2-1.8C283.2,231.4,279.1,228.6,281.4,229.8
		z"/>
	<path id="path3430" class="st20" d="M229.5,227.4c2.3,1.1,2.9,1.7,0.3,3.8c-2.6,2,1.4-1.4,1.3-2.1
		C230.9,228.4,227.3,226.3,229.5,227.4z"/>
	<path id="path3432" class="st20" d="M239.5,220.7c3.4,1.8,2.3,1.6-0.3,3.6c-2.5,2,1.6-1.5,1.3-2.2
		C240.3,221.4,236.1,218.9,239.5,220.7z"/>
	<path id="path3434" class="st20" d="M252.3,224.3c2.5,1.3,3,2,0.3,4c-2.7,2.1,1.3-1.4,1.2-2.1C253.7,225.5,249.8,223,252.3,224.3z"
		/>
	<path id="path3436" class="st20" d="M266.1,228.4c2.2,1.3,2.7,1.8,0.3,4c-2.5,2.2,1-0.8,0.8-2.1C267,229,264,227.1,266.1,228.4z"/>
	<path id="path3438" class="st20" d="M257.5,234.8c2.2,1.3,2.7,1.8,0.3,4c-2.5,2.2,1-0.8,0.8-2.1
		C258.3,235.4,255.3,233.5,257.5,234.8z"/>
	<path id="path3440" class="st20" d="M249,241.4c2.8,1.4,2.9,1.9,0.3,4c-2.6,2.2,1.3-1.5,1.2-2.3C250.4,242.3,246.3,240,249,241.4z"
		/>
	<path id="path3442" class="st20" d="M263.7,243.2c2.2,1.3,2.7,1.8,0.3,4c-2.5,2.2,1-0.8,0.8-2.1
		C264.6,243.9,261.6,241.9,263.7,243.2z"/>
	<path id="path3444" class="st20" d="M272.8,236.8c2.5,1.2,2.9,1.8,0.3,3.9c-2.6,2.1,1.4-1.4,1.3-2.2
		C274.3,237.7,270.3,235.6,272.8,236.8z"/>
	<path id="path3446" class="st20" d="M284,241.9c2.7,1.4,3,1.8,0.3,4c-2.7,2.2,0.2-0.6,1-1.6C286,243.4,281.3,240.5,284,241.9z"/>
	<path id="path3448" class="st20" d="M292.8,235.1c2.5,1.1,2.9,1.8,0.3,4c-2.6,2.2,0-0.5,1-1.7C295.2,236.2,290.3,234,292.8,235.1z"
		/>
	<path id="path3450" class="st20" d="M301.4,228.1c2.5,1.3,2.7,1.8,0.3,4c-2.5,2.2,0.1-0.7,0.7-1.9C303,229,298.9,226.9,301.4,228.1
		z"/>
	<path id="path3452" class="st20" d="M290.1,222.5c2.3,1.2,2.9,1.9,0.3,4c-2.6,2.1,1.2-1.4,1.1-2.2
		C291.5,223.5,287.8,221.4,290.1,222.5z"/>
	<path id="path3454" class="st20" d="M274.5,221.7c2.9,1.6,2.9,2,0.3,4c-2.6,2-1,0.1,0.8-1.3C277.4,223.1,271.8,220.2,274.5,221.7z"
		/>
	<path id="path3456" class="st20" d="M260.2,218.4c2.2,1.3,2.7,1.8,0.3,4c-2.5,2.2,1-0.8,0.8-2.1
		C261.1,219.1,258.1,217.1,260.2,218.4z"/>
	<path id="path3458" class="st20" d="M248.2,214.3c3.2,1.5,3.2,1.6,0.2,3.7c-3,2.1,1.5-1.1,1.3-2.1C249.3,215,245,212.9,248.2,214.3
		z"/>
	<path id="path3460" class="st20" d="M257.9,207.1c2.2,1.3,2.7,1.8,0.3,4c-2.5,2.2,1-0.8,0.8-2.1
		C258.7,207.7,255.7,205.8,257.9,207.1z"/>
	<path id="path3462" class="st20" d="M268,212.7c2.2,1.3,2.7,1.8,0.3,4c-2.5,2.2,1-0.8,0.8-2.1C268.9,213.4,265.9,211.4,268,212.7z"
		/>
	<path id="path3464" class="st20" d="M282,216c2.7,1.3,3.1,1.8,0.3,4c-2.8,2.2-0.2,0.1,1.1-1.7C284.6,216.6,279.3,214.8,282,216z"/>
	<path id="path3466" class="st20" d="M273.9,207.8c2.2,1.3,2.7,1.8,0.3,4c-2.5,2.2,1-0.8,0.8-2.1
		C274.8,208.4,271.8,206.5,273.9,207.8z"/>
	<path id="path3468" class="st20" d="M289.2,210.7c2.2,1.3,2.7,1.8,0.3,4c-2.5,2.2,1-0.8,0.8-2.1C290,211.3,287,209.4,289.2,210.7z"
		/>
	<path id="path3470" class="st20" d="M311.7,205.2c3.1,1.2,3.2,1.3-3.3,6.6c-6.5,5.2,1.6-1.7,3.8-3.8
		C314.4,206,308.6,204.1,311.7,205.2z"/>
	<path id="path3472" class="st20" d="M300.6,201c2.2,1.3,2.7,1.8,0.3,4c-2.5,2.2,1-0.8,0.8-2.1C301.5,201.6,298.5,199.6,300.6,201z"
		/>
	<path id="path3474" class="st20" d="M278.1,192.3c3.9,1.6,3.7,1.4-2.4,6.1c-6.1,4.7,2.7-2.5,4-3.8
		C280.9,193.4,274.2,190.7,278.1,192.3z"/>
	<path id="path3477" class="st21" d="M244,22.9L38.1,90.5l7.4,49.6c68.1-35,144.4-12.5,197.7-35.4C243.2,104.7,244,22.9,244,22.9z"
		/>
	<path id="path2180" class="st6" d="M24.9,76.7c4.2-1.5,5.5-1,7.1,0.9l30.1,201.2l-8.4-4.2L24.9,76.7z"/>
	<path id="path13298" class="st15" d="M89.8,260.4l138.1-84.6c1.7,1.1,3.3,2.3,3.3,4.3L93.7,264.8C93.4,262.9,92.1,261.4,89.8,260.4
		z"/>
	<g id="path14269" class="st22">
		<polygon class="st20" points="161.1,241.3 225,199.1 225.6,200 162.7,242.7 		"/>
	</g>
	<g id="path16261" class="st22">
		<polygon class="st20" points="108,275.3 123.9,264.9 124.5,265.9 109.7,276.7 		"/>
	</g>
	<g id="path16263" class="st22">
		<polygon class="st20" points="108,275.3 123.9,264.9 124.5,265.9 109.7,276.7 		"/>
	</g>
	<g id="path16267" class="st22">
		<polygon class="st20" points="161.1,241.3 225,199.1 225.6,200 162.7,242.7 		"/>
	</g>
	<path id="path16269" class="st11" d="M101.1,274.4c2.5-2.4,9.1,2.1,8.4,5L101.1,274.4z"/>
	
		<linearGradient id="path25800_1_" gradientUnits="userSpaceOnUse" x1="-102.7159" y1="592.3444" x2="-101.9333" y2="592.0385" gradientTransform="matrix(54.8735 0 0 -46.1054 5912.793 27579.0918)">
		<stop  offset="0" style="stop-color:#FFFFFF;stop-opacity:0.1122"/>
		<stop  offset="1" style="stop-color:#FFFFFF;stop-opacity:0.898"/>
	</linearGradient>
	<path id="path25800" class="st23" d="M301.1,249.2c-1.9,0.1-3.6,0.6-4.7,1.5l-38.8,32.4c-2.6,2.2-1.7,5.5,2.1,7.4c0,0,5,2.4,10,4.8
		c34-6.1,11.3-41.3,41.3-43.3c-1.3-0.6-4.1-1.8-4.1-1.8C305.1,249.4,303,249.1,301.1,249.2z"/>
</g>
<image style="overflow:visible;" width="1280" height="720" xlink:href="xintasis ya casa_00109.png"  transform="matrix(0.1731 -8.003843e-02 7.938135e-02 0.2284 6.6327 95.4558)">
</image>
</svg>
